<?xml version="1.0" encoding="utf-8"?>
<!-- Generator: Adobe Illustrator 22.1.0, SVG Export Plug-In . SVG Version: 6.00 Build 0)  -->
<svg version="1.1" id="Layer_1" xmlns="http://www.w3.org/2000/svg" xmlns:xlink="http://www.w3.org/1999/xlink" x="0px" y="0px"
	 viewBox="0 0 118.7 47" style="enable-background:new 0 0 118.7 47;" xml:space="preserve">
<style type="text/css">
	.st0{fill-rule:evenodd;clip-rule:evenodd;fill:#51BCB6;}
	.st1{fill-rule:evenodd;clip-rule:evenodd;fill:#4B428D;}
	.st2{fill:#51BCB6;}
	.st3{fill:#4B428D;}
</style>
<g>
	<g>
		<path class="st0" d="M10.7,26.1h23.9V3.7H20.4h-9.5v0c-2,0-3.7,1.7-3.7,3.8v19.7C8.2,26.5,9.4,26.1,10.7,26.1"/>
		<path class="st1" d="M14.2,36.9 M35.4,1.2C35.4,1.2,35.4,1.2,35.4,1.2C35.4,1.2,35.4,1.2,35.4,1.2z M35.2,1.8
			C35.2,1.8,35.2,1.7,35.2,1.8C35.2,1.7,35.2,1.8,35.2,1.8z M35.2,1.9C35.2,1.9,35.2,1.8,35.2,1.9C35.2,1.8,35.2,1.9,35.2,1.9z
			 M34.7,2.3C34.7,2.3,34.7,2.3,34.7,2.3C34.7,2.3,34.7,2.3,34.7,2.3z M34.4,2.5C34.4,2.5,34.4,2.5,34.4,2.5
			C34.4,2.5,34.4,2.5,34.4,2.5z M34,2.5C34,2.5,34,2.5,34,2.5C34,2.5,34,2.5,34,2.5z M4.9,26c1-0.7,2.3-1.1,3.6-1.1h7.1h0.1h2h0.5
			h0.1H20h1.3h0.1h1.4h9.7V2.5H21.3h-3.1v0H8.6c-2,0-3.7,1.7-3.7,3.8V26z M15.6,35.5H34c0.8,0,1.4,0.6,1.4,1.4
			c0,0.8-0.6,1.4-1.4,1.4H15.6H8.5c-3.7,0-6.7-3-6.7-6.7V6.3c0-3.7,3-6.8,6.8-6.8h12.6h12.6v0h0l0,0v0l0,0v0l0,0l0,0l0,0l0,0l0,0
			l0,0l0,0l0,0l0,0l0,0l0,0l0,0l0,0l0,0l0,0l0,0l0,0l0,0l0,0v0l0,0l0,0l0,0l0,0l0,0l0,0v0l0,0l0,0l0,0l0,0l0,0l0,0l0,0l0,0l0,0l0,0
			l0,0l0,0l0,0v0l0,0l0,0l0,0l0,0l0,0l0,0l0,0l0,0l0,0v0l0,0v0l0,0l0,0l0,0l0,0l0,0l0,0l0,0l0,0l0,0l0,0l0,0l0,0l0,0l0,0l0,0l0,0
			l0,0l0,0l0,0l0,0l0,0l0,0l0,0l0,0l0,0h0l0,0l0,0l0,0l0,0l0,0l0,0l0,0l0,0l0,0l0,0l0,0l0,0l0,0l0,0l0,0l0,0l0,0l0,0l0,0l0,0l0,0
			l0,0l0,0l0,0l0,0l0,0l0,0l0,0l0,0l0,0l0,0l0,0l0,0l0,0l0,0l0,0l0,0l0,0l0,0l0,0l0,0l0,0l0,0l0,0l0,0l0,0l0,0l0,0l0,0l0,0l0,0l0,0
			l0,0l0,0l0,0l0,0l0,0l0,0l0,0l0,0l0,0l0,0l0,0l0,0l0,0l0,0l0,0l0,0l0,0l0,0l0,0l0,0l0,0l0,0l0,0l0,0l0,0l0,0l0,0l0,0l0,0l0,0l0,0
			l0,0l0,0l0,0l0,0l0,0l0,0l0,0l0,0l0,0l0,0l0,0l0,0l0,0l0,0l0,0l0,0l0,0l0,0l0,0l0,0l0,0l0,0l0,0l0,0l0,0l0,0l0,0l0,0
			c0.1,0.2,0.2,0.4,0.3,0.6l0,0l0,0l0,0l0,0l0,0l0,0l0,0l0,0l0,0v0v24v1.3c0,0.8-0.6,1.4-1.4,1.4H21.3h-3.1h-2.6H8.5
			c-0.9,0-1.7,0.3-2.4,0.8c-0.9,0.7-1.5,1.8-1.5,3.1c0,2.1,1.8,3.9,3.9,3.9H15.6z M35.4,1L35.4,1 M34.6-0.3L34.6-0.3L34.6-0.3
			 M34.3-0.4L34.3-0.4L34.3-0.4 M34.2-0.4L34.2-0.4L34.2-0.4 M34.1-0.5L34.1-0.5L34.1-0.5L34.1-0.5L34.1-0.5l0.1,0v0 M34-0.5L34-0.5
			L34-0.5 M33.9-0.5L33.9-0.5 M18.2,2.5H8.6v0"/>
		<path class="st1" d="M8.3,29h25.2c0.5,0,0.8,0.4,0.8,0.8c0,0.5-0.4,0.8-0.8,0.8H8.3c-0.5,0-0.8-0.4-0.8-0.8
			C7.4,29.4,7.8,29,8.3,29"/>
		<path class="st1" d="M8.3,31.9h25.2c0.5,0,0.8,0.4,0.8,0.8c0,0.5-0.4,0.8-0.8,0.8H8.3c-0.5,0-0.8-0.4-0.8-0.8
			C7.4,32.3,7.8,31.9,8.3,31.9"/>
		<polygon class="st1" points="20.1,36.9 28.7,47.2 28.7,37 		"/>
	</g>
	<g>
		<path class="st2" d="M57.2,20.3c0,0.8-0.5,1.2-1.5,1.2h-2c-0.5,0-0.9-0.1-1.3-0.2c-0.3-0.1-0.7-0.4-1-0.8l-5.5-6.7h-0.5v5.9
			c0,1.2-0.6,1.8-1.8,1.8h-1.4c-0.6,0-1.1-0.1-1.5-0.4c-0.3-0.3-0.5-0.7-0.5-1.4V1.4c0-0.7,0.2-1.1,0.6-1.3c0.4-0.2,0.8-0.3,1.4-0.3
			h6.1c1.8,0,3,0.1,3.8,0.3c0.7,0.2,1.4,0.6,2.1,1.3c0.6,0.6,1.1,1.4,1.4,2.5c0.3,1,0.4,2.3,0.4,3.7c0,3.4-1.3,5.5-4,6.1l4.6,5.4
			C57,19.4,57.2,19.9,57.2,20.3z M51,7.2L51,7.2c0-1.8-0.2-2.8-0.7-3c-0.3-0.1-1-0.2-2.2-0.2H48c-1.1,0-1.9,0-2.5,0v5.4h3.3
			c0.7,0,1.2-0.1,1.5-0.2s0.5-0.3,0.6-0.6S51,7.9,51,7.2z"/>
		<path class="st2" d="M74.9,19.9c0,1.1-0.6,1.7-1.8,1.7H63c-0.6,0-1.1-0.1-1.5-0.4c-0.3-0.3-0.5-0.7-0.5-1.4V1.4
			c0-0.7,0.2-1.1,0.6-1.3C62-0.2,62.4-0.3,63-0.3h10.2c1.2,0,1.8,0.6,1.8,1.7v0.9c0,0.5-0.1,0.9-0.3,1.3c-0.2,0.4-0.7,0.5-1.4,0.5
			c-0.9,0-1.5,0-2.1,0c-0.5,0-1.1,0-1.8,0c-0.7,0-1.3,0-1.8,0c-0.5,0-1,0-1.3,0v4.2c0.8,0,1.6,0,2.4-0.1c0.8,0,1.4,0,1.7,0
			s1,0,2.1,0c1.2,0,1.8,0.6,1.8,1.9v0.4c0,1.2-0.6,1.9-1.8,1.9c-0.9,0-1.8,0-2.9,0c-1,0-2.1,0-3.4-0.1v5.1c0.9,0,1.8,0,2.8-0.1
			c1,0,1.7,0,2,0c0.4,0,1.1,0,2.2,0c0.7,0,1.2,0.2,1.4,0.5c0.2,0.4,0.3,0.8,0.3,1.3V19.9z"/>
		<path class="st2" d="M97.3,20.2c0,0.9-0.5,1.3-1.5,1.3H94c-0.6,0-1-0.1-1.2-0.4c-0.3-0.2-0.5-0.6-0.6-1l-1-2.7c-1,0-2.4,0-3.9,0
			c-1.8,0-3.1,0-3.9,0L82.4,20c-0.2,0.5-0.4,0.9-0.7,1.2c-0.3,0.3-0.7,0.4-1.3,0.4h-1.5c-0.7,0-1.1-0.1-1.3-0.3
			c-0.2-0.2-0.3-0.5-0.3-0.9c0-0.2,0.1-0.5,0.3-1.1l6.7-18.1c0.1-0.4,0.3-0.7,0.5-0.9c0.2-0.2,0.4-0.4,0.7-0.6
			c0.3-0.1,0.7-0.2,1.1-0.2h1.3c0.7,0,1.2,0.1,1.5,0.4s0.6,0.7,0.8,1.2l7.1,18.4C97.3,19.9,97.3,20.1,97.3,20.2z M89.7,13.7
			l-2.5-7.2l-2.5,7.2c0.4,0,0.8,0,1.1,0c0.3,0,0.8,0,1.4,0c0.6,0,1,0,1.4,0C88.9,13.6,89.2,13.7,89.7,13.7z"/>
		<path class="st2" d="M117.7,10.9c0,1.7-0.1,3.3-0.4,4.7c-0.3,1.4-0.8,2.6-1.7,3.6c-0.9,1-2.1,1.7-3.7,2.1
			c-0.7,0.2-1.5,0.3-2.1,0.3c-0.7,0.1-1.3,0.1-1.9,0.1h-5.7c-0.6,0-1.1-0.1-1.5-0.4c-0.3-0.3-0.5-0.7-0.5-1.4V1.4
			c0-0.7,0.2-1.1,0.6-1.3c0.4-0.2,0.8-0.3,1.4-0.3h5.7c1.8,0,3.3,0.1,4.5,0.4s2.2,0.8,3,1.6c0.8,0.8,1.4,1.9,1.8,3.4
			S117.7,8.5,117.7,10.9z M112.4,9.9c0-1.5-0.1-2.7-0.3-3.6c-0.2-0.9-0.7-1.5-1.5-1.8c-0.7-0.3-1.8-0.4-3.4-0.4c-1,0-1.7,0-1.9,0
			v12.9c0.2,0,0.9,0,1.9,0c1.6,0,2.7-0.2,3.4-0.5c0.7-0.3,1.2-0.9,1.4-1.8s0.4-2.2,0.4-4V9.9z"/>
		<path class="st3" d="M56.5,27.6c0,1.2-0.6,1.9-1.8,1.9c-1.2,0-2.7,0-4.5-0.1v15.8c0,1.2-0.6,1.8-1.8,1.8h-1.4
			c-0.6,0-1.1-0.1-1.5-0.4c-0.3-0.3-0.5-0.7-0.5-1.4V29.4c-1.7,0-3.2,0.1-4.5,0.1c-0.7,0-1.2-0.2-1.4-0.5c-0.2-0.4-0.3-0.8-0.3-1.3
			v-0.9c0-1.1,0.6-1.7,1.8-1.7h14.1c1.2,0,1.8,0.6,1.8,1.7V27.6z"/>
		<path class="st3" d="M77.2,45.2c0,1.2-0.6,1.8-1.8,1.8H74c-0.6,0-1.1-0.1-1.5-0.4c-0.3-0.3-0.5-0.7-0.5-1.4v-7.8
			c-0.7,0-1.9,0-3.6,0c-0.4,0-0.8,0-1.2,0s-0.8,0-1.3,0c-0.5,0-0.9,0-1.1,0v7.8c0,1.2-0.6,1.8-1.8,1.8h-1.4c-0.6,0-1.1-0.1-1.5-0.4
			c-0.3-0.3-0.5-0.7-0.5-1.4V26.8c0-0.7,0.2-1.1,0.6-1.3c0.4-0.2,0.8-0.3,1.4-0.3h1.4c1.2,0,1.8,0.6,1.8,1.7v6.5c0.7,0,1.9,0,3.6,0
			c1.7,0,2.9,0,3.6,0v-6.5c0-0.7,0.2-1.1,0.6-1.3c0.4-0.2,0.8-0.3,1.4-0.3h1.4c1.2,0,1.8,0.6,1.8,1.7V45.2z"/>
		<path class="st3" d="M87.2,45.2c0,1.2-0.6,1.8-1.8,1.8H84c-0.6,0-1.1-0.1-1.5-0.4c-0.3-0.3-0.5-0.7-0.5-1.4V26.8
			c0-0.7,0.2-1.1,0.6-1.3c0.4-0.2,0.8-0.3,1.4-0.3h1.4c1.2,0,1.8,0.6,1.8,1.7V45.2z"/>
		<path class="st3" d="M106.1,40.1c0,2.2-0.2,3.8-0.7,4.6c-0.4,0.7-1,1.3-1.7,1.6c-0.8,0.4-1.6,0.6-2.5,0.8
			c-0.9,0.1-1.9,0.2-2.9,0.2c-1.5,0-3.2-0.1-4.9-0.2c-0.8-0.1-1.3-0.2-1.6-0.4s-0.4-0.6-0.4-1v-1.1c0-0.7,0.1-1.2,0.3-1.5
			c0.2-0.3,0.7-0.4,1.3-0.4c0.4,0,1.1,0,2,0.1c0.9,0.1,2.1,0.1,3.7,0.1c0.8,0,1.3,0,1.6-0.1c0.3-0.1,0.5-0.2,0.5-0.4
			c0.1-0.2,0.1-0.6,0.1-1.2v-0.9c0-0.5-0.1-0.8-0.2-1c-0.1-0.2-0.4-0.4-0.8-0.5c-1.1-0.4-2.5-1-4.2-1.7c-1.3-0.5-2.2-1-2.8-1.5
			c-0.6-0.4-1-1-1.2-1.7c-0.2-0.7-0.3-1.7-0.3-3.1c0-1.1,0.1-2.1,0.4-2.9c0.2-0.8,0.7-1.4,1.3-2s1.6-0.9,2.8-1
			c0.6-0.1,1.7-0.1,3.2-0.1h0.5c0.9,0,2.2,0.1,3.8,0.2c0.8,0,1.3,0.2,1.6,0.4c0.3,0.2,0.4,0.6,0.4,1v1.1c0,0.7-0.1,1.2-0.3,1.5
			c-0.2,0.3-0.7,0.4-1.3,0.4c-0.2,0-0.7,0-1.5-0.1c-0.8-0.1-1.5-0.1-2-0.1c-0.4,0-0.8,0-1.1,0c-0.4,0-0.8,0-1.3,0
			c-0.6,0-1,0.1-1.2,0.3c-0.2,0.2-0.2,0.6-0.2,1.2v0.4c0,0.5,0.1,0.8,0.2,1c0.1,0.2,0.4,0.4,0.8,0.6c0.4,0.1,0.9,0.3,1.5,0.6
			c0.6,0.2,1,0.4,1.2,0.5c1.8,0.7,3,1.3,3.8,1.7c0.7,0.4,1.2,1,1.5,1.6C106,37.9,106.1,38.8,106.1,40.1z"/>
		<path class="st3" d="M116.4,44.2c0,0.4-0.2,0.9-0.6,1.4c-0.4,0.5-0.8,1-1.3,1.4c-0.5,0.4-0.9,0.6-1.3,0.6c-0.9,0-1.8-0.7-2.9-2.2
			c-0.3-0.4-0.4-0.7-0.4-1.1c0-0.3,0.1-0.6,0.3-1c0.2-0.4,0.5-0.8,0.9-1.1s0.7-0.6,1.1-0.9c0.4-0.2,0.7-0.3,0.9-0.3
			c0.8,0,1.7,0.7,2.8,2.2C116.2,43.5,116.4,43.9,116.4,44.2z M115.6,26.8L115.6,26.8l-0.2,10.7c0,1.2-0.6,1.8-1.7,1.8h-1.1
			c-0.7,0-1.1-0.1-1.3-0.3c-0.2-0.2-0.3-0.7-0.4-1.4l-0.3-10.7v-0.1c0-1.1,0.6-1.6,1.8-1.6h1.5c0.6,0,1,0.2,1.3,0.5
			S115.6,26.4,115.6,26.8z"/>
	</g>
</g>
</svg>
