<?xml version="1.0" standalone="no"?>
<!DOCTYPE svg PUBLIC "-//W3C//DTD SVG 20010904//EN"
 "http://www.w3.org/TR/2001/REC-SVG-20010904/DTD/svg10.dtd">
<svg version="1.0" xmlns="http://www.w3.org/2000/svg"
 width="1000.000000pt" height="1000.000000pt" viewBox="0 0 1000.000000 1000.000000"
 preserveAspectRatio="xMidYMid meet">
<metadata>
Created by potrace 1.11, written by Peter Selinger 2001-2013
</metadata>
<g transform="translate(0.000000,1000.000000) scale(0.100000,-0.100000)"
fill="#000000" stroke="none">
<path d="M2750 9980 c-170 -32 -227 -50 -370 -117 -222 -103 -429 -280 -568
-485 -129 -189 -219 -430 -239 -642 -9 -95 -9 -5555 0 -5631 35 -285 173 -575
377 -789 130 -137 244 -219 414 -300 168 -80 279 -112 466 -132 36 -4 679 -7
1430 -7 l1365 0 25 -26 c27 -28 49 -54 120 -141 25 -30 55 -66 67 -80 11 -14
250 -299 529 -635 279 -335 523 -629 543 -653 20 -24 46 -55 59 -70 13 -15 66
-80 119 -144 53 -65 100 -118 103 -118 4 0 7 413 7 918 1 504 2 924 2 933 1
14 60 16 581 16 532 0 583 1 627 18 67 25 124 74 158 136 26 47 30 64 30 134
0 60 -5 91 -22 125 -27 58 -81 112 -141 142 l-47 23 -2780 5 c-2595 5 -2784 6
-2835 22 -30 10 -66 21 -80 24 -52 15 -176 86 -243 142 -154 125 -255 302
-293 512 -8 44 -7 194 1 240 21 123 61 224 129 325 113 169 270 282 471 340
l100 29 2760 1 2760 0 57 28 c68 33 126 96 150 162 17 45 18 203 18 2751 0
2692 0 2704 -20 2758 -28 72 -88 139 -158 173 l-57 28 -2760 2 c-2614 1 -2765
0 -2855 -17z m5211 -620 c1 -3 2 -58 3 -122 1 -99 -1 -118 -14 -119 -8 0
-1045 -1 -2305 -1 -2184 -1 -2294 -2 -2367 -19 -286 -68 -504 -285 -583 -581
l-24 -91 -1 -1886 c0 -1037 -4 -1888 -8 -1892 -4 -3 -29 -12 -57 -19 -87 -23
-247 -88 -319 -130 -37 -22 -69 -40 -71 -40 -6 0 2 4228 9 4255 21 87 42 147
73 210 113 227 320 387 554 428 49 9 717 12 2588 12 1386 0 2522 -2 2522 -5z"/>
<path d="M2856 3803 c-75 -22 -126 -99 -121 -182 3 -54 46 -117 98 -144 38
-19 73 -20 2717 -20 2649 0 2679 0 2717 20 94 49 126 171 67 255 -16 23 -45
50 -64 62 -35 20 -45 20 -2703 20 -2072 1 -2678 -2 -2711 -11z"/>
<path d="M2854 3199 c-48 -14 -99 -70 -113 -123 -20 -81 11 -154 87 -204 25
-16 177 -17 2706 -18 1983 -1 2687 1 2710 10 68 24 113 82 120 152 6 67 -40
145 -106 180 -23 12 -424 14 -2700 13 -1544 0 -2686 -5 -2704 -10z"/>
</g>
</svg>
